<svg xmlns="http://www.w3.org/2000/svg" xmlns:xlink="http://www.w3.org/1999/xlink" fill="orange" enable-background="new 0 0 200 200" height="200px" id="Layer_1" version="1.0" viewBox="0 0 200 200" width="150px" xml:space="preserve"><g id="New_Symbol"/><g id="New_Symbol_1_"/><g id="New_Symbol_1"/><g id="New_Symbol_9_2_"/><g id="New_Symbol_7"/><g id="New_Symbol_9_1_"/><g id="New_Symbol_9"/><g id="Nuevo_símbolo"/><g id="New_Symbol_10"/><g id="New_Symbol_12"/><g id="New_Symbol_14"/><g id="New_Symbol_15"/><g id="New_Symbol_16"/><g id="New_Symbol_17_1_"/><g id="New_Symbol_18"/><g id="New_Symbol_19"/><g id="New_Symbol_17"/><path d="M173,149.6c10-14.1,15.3-31.2,15.3-49.6S183,64.6,173,50.4V42h-6.4c-16.2-18-40-30.3-66.5-30.3C73.5,11.7,49.7,24,33.6,42  H27v8.4C18,64.6,11.7,81.7,11.7,100S18,135.5,27,149.6V188h66.1c2.3,0,4.6,0.3,6.9,0.3s4.6-0.3,6.9-0.3h66V149.6z M185.8,100  c0,16.5-4.8,31.9-12.8,45V55C181,68.1,185.8,83.5,185.8,100z M170,69.4c-1-0.6-2-0.9-3.5-0.9c-0.6,0-1,0-1.6,0.1  c-2,0.4-3.8,1.3-4.8,2.6c-0.7-0.2-1.4-0.1-2.1,0.2c-0.8-0.5-1.7-0.4-2-0.4h-13c-0.2,0-1.8,0-3,0.9c-0.8-0.3-1.6-0.3-2.4,0  c-1.9-1.4-4.4-1.5-5.2-1.5l-0.1,0l-14.2-0.5c-0.7-0.4-1.6-0.7-2.4-0.7c-1,0-1.8,0.3-2.6,0.8c0-0.3,0-0.5,0-0.6  c0.1-0.3,0-0.6-0.2-0.8c-0.2-0.2-0.4-0.4-0.7-0.4c0,0-2.3-0.2-5.3-0.4v-3c1-1.7,5.3-13.1,1.5-18.8c-0.3-0.4-0.6-1-1-1h57.8  c1.8,2,3.6,4,4.6,6.2V69.4z M161.5,74.8c-0.2-0.2-0.5-0.5-0.5-0.8c-0.1-0.3,0.1-0.7,0.1-1.1c0,0,0,0,0,0c1-1.1,2.4-2,4.2-2.4  c0.5-0.1,1-0.1,1.4-0.1c2,0,3.6,0.8,3.7,1.9c0.2,1.2-1.5,2.9-4.2,3.4C164.2,76.1,162.3,75.7,161.5,74.8z M157.3,75.2  c-0.4,0.6-1.4,0.6-1.4,0.6L143.1,77H143c-0.2,0-0.9,0.1-1.5-0.2c0-0.1,0.1-0.1,0.1-0.2c0,0,0,0,0.1-0.1c0.1-0.2,0.2-0.4,0.2-0.6  c0,0,0-0.1,0-0.1c0.1-0.2,0.1-0.5,0.1-0.7c0-0.2,0-0.5-0.1-0.7c0,0,0-0.1,0-0.1c-0.1-0.2-0.1-0.4-0.2-0.6c0,0,0-0.1-0.1-0.1  c0-0.1-0.1-0.1-0.1-0.1c0.7-0.4,1.4-0.3,1.4-0.3h13c0.3,0,0.9,0,1.3,0.3c0.2,0.2,0.3,0.4,0.3,0.8C157.6,74.6,157.5,74.9,157.3,75.2z   M140.1,75.4C140.1,75.4,140.1,75.4,140.1,75.4c0,0.2-0.1,0.2-0.1,0.3c0,0,0,0.1-0.1,0.1c0,0.1-0.1,0.1-0.1,0.2c0,0,0,0.1-0.1,0.1  c0,0,0,0-0.1,0.1c0-0.1,0-0.3,0-0.4c0,0,0-0.1,0-0.1c0-0.1,0-0.3-0.1-0.4c0-0.1,0-0.1,0-0.2c0-0.2-0.1-0.4-0.2-0.6  c-0.1-0.2-0.2-0.4-0.2-0.6c0,0,0,0,0,0c0.1,0,0.3,0.1,0.4,0.2c0.4,0.3,0.6,0.7,0.6,1.2C140.1,75.1,140.1,75.3,140.1,75.4z   M109.5,179c-0.1,0-0.2,0-0.2-0.1c-0.2,0-0.5-0.1-0.8-0.1l-0.2,0c-0.2,0-0.5,0-0.7,0.1c-0.1,0-0.1,0-0.2,0c-0.1,0-0.2,0.2-0.3,0.2  c0-0.2,0-0.3,0.1-0.3h2.7c0,0,0.1,0.2,0.1,0.3c0,0-0.1-0.1-0.1-0.1C109.8,179.2,109.6,179.1,109.5,179z M92.1,115.5  c0.2-0.6,0.5-1.5,1-1.5h4.6c0.5,0,0.9,0.9,1,1.5c0,0-0.1-0.1-0.1-0.1c-0.2-0.1-0.3-0.2-0.5-0.3c0,0-0.1-0.1-0.1-0.1  c-0.2-0.1-0.5-0.2-0.7-0.3c-0.1,0-0.1,0-0.2-0.1c-0.2-0.1-0.4-0.1-0.6-0.2c-0.1,0-0.2,0-0.2,0c-0.3,0-0.6-0.1-0.9-0.1  c-0.3,0-0.5,0-0.8,0.1c-0.1,0-0.1,0-0.2,0c-0.2,0-0.5,0.1-0.7,0.2c0,0,0,0,0,0c-0.2,0.1-0.5,0.2-0.7,0.3c-0.1,0-0.1,0.1-0.2,0.1  C92.6,115.1,92.3,115.3,92.1,115.5C92.1,115.4,92.1,115.5,92.1,115.5z M110.1,115.5C110.1,115.5,110.1,115.4,110.1,115.5  c-0.2-0.2-0.5-0.4-0.7-0.5c-0.1,0-0.1-0.1-0.2-0.1c-0.2-0.1-0.5-0.2-0.7-0.3c0,0,0,0,0,0c-0.2-0.1-0.5-0.1-0.7-0.2  c-0.1,0-0.1,0-0.2,0c-0.3,0-0.5-0.1-0.8-0.1c-0.3,0-0.6,0-0.9,0.1c-0.1,0-0.2,0-0.2,0c-0.2,0-0.4,0.1-0.6,0.2c-0.1,0-0.1,0-0.2,0.1  c-0.2,0.1-0.5,0.2-0.7,0.3c0,0-0.1,0-0.1,0.1c-0.2,0.1-0.3,0.2-0.5,0.3c0,0-0.1,0.2-0.1,0.2c0.2-0.6,0.5-1.5,1-1.5h4.6  C109.6,114,109.9,114.9,110.1,115.5z M101.3,116.4c0,0.4,0.1,0.8,0.2,1.2c-0.2,0.3-0.3,0.7-0.4,1.1c-0.1-0.4-0.2-0.8-0.4-1.1  c0.1-0.4,0.2-0.7,0.2-1.2c0-0.9-0.2-2.4-0.6-2.4h1.7C101.5,114,101.3,115.5,101.3,116.4z M92,118.1c0.1-0.2,0.2-0.3,0.3-0.4  c1-0.9,2-1.3,3.1-1.3c1.4,0,2.5,0.9,2.9,1.2c0.1,0.1,0.2,0.2,0.3,0.3c0.1,0.1,0.1,0.1,0.2,0.2c0,0,0,0,0,0c1.1,1.9,0.5,6,0,9.2  c-0.1,0.7-0.2,1.5-0.3,2.1c-0.5,3.7-0.8,10.9-0.9,13.1c-0.2,0.1-0.5,0.2-0.8,0.3c-1,0.3-2,0.5-2.9,0.3c-0.3-0.1-0.7-0.2-1-0.2  c0,0,0,0,0,0c-0.2,0-0.4-0.3-0.5-0.4c0.2-4-0.2-8.6-0.5-12.5C91.4,124.9,91.1,119.9,92,118.1z M96.1,145.4c-0.1,0-0.2-0.1-0.3-0.1  c-0.3-0.1-0.6-0.1-1-0.1c0,0,0,0,0,0c0,0-0.1,0-0.1,0c0,0,0,0,0,0c0,0,0,0,0,0c0,0,0,0,0,0c0.1,0,0.1,0,0.2,0c0.3,0,0.6,0,0.9-0.1  c0.2,0,0.3,0,0.5-0.1c0.1,0,0.2,0,0.3-0.1c0.1,0.2,0.1,0.4,0.1,0.6c0,0,0,0,0,0C96.5,145.5,96.3,145.4,96.1,145.4z M93.7,145.3  c-0.1,0-0.3,0.1-0.4,0.1c-0.2,0-0.3,0.1-0.5,0.2c0,0,0,0-0.1,0c0-0.2,0.1-0.4,0.1-0.6c0.1,0,0.1,0,0.2,0c0.2,0,0.3,0.1,0.5,0.1  c0.1,0,0.2,0,0.3,0c0.2,0,0.3,0,0.5,0c0.1,0,0.1,0,0.2,0c0,0,0,0,0,0c-0.1,0-0.2,0-0.3,0C94,145.2,93.9,145.2,93.7,145.3z M91.4,177  l0.2-22.7c-0.1-1.2,0-4.8,1.4-6.4c0.5-0.5,1-0.8,1.8-0.7c0.9,0.1,1.6,0.3,2,0.7c1,1,1.1,3.4,1,6.4c-0.3,5-1.6,18.7-2,22.7h-4.1H91.4  z M92.1,180.7c0.5-0.4,1-0.7,1.6-0.7h0.1c0.6,0,1,0.4,1.3,0.6c0.9,0.8,0.9,2.6,0.8,3.5c-1,0.7-1.9,1.1-2.9,1.1v0c-1,0-2.2-0.6-2.7-1  C90.5,183.4,91,181.6,92.1,180.7z M97,179.9c0.1-0.3,0.1-0.6,0.1-0.9c0-0.1,0-0.3,0-0.4c0.5-0.4,0.7-2.2,1.5-10.4  c0.6-6.2,1-11.4,1.1-13.9c0.2-3.4,0.1-5.8-1.1-7.3c0.1-0.4,0.2-0.8,0.2-1.2c0-0.5-0.1-0.9-0.2-1.3c0.3-0.1,0.5-0.3,0.6-0.3  c0.3-0.2,0.5-0.5,0.5-0.8c0-0.1,0.3-9.3,0.9-13.5c0.1-0.7,0.2-1.4,0.3-2.1c0.1-0.8,0.2-1.5,0.3-2.3c0.1,0.8,0.2,1.6,0.3,2.3  c0.1,0.7,0.2,1.4,0.3,2.1c0.6,4.2,0.9,13.4,0.9,13.5c0,0.4,0.2,0.7,0.5,0.8c0,0,0.2,0.1,0.6,0.3c-0.2,0.4-0.2,0.9-0.2,1.3  c0,0.4,0.1,0.8,0.2,1.2c-1.2,1.5-1.3,3.9-1.1,7.3c0.1,2.5,0.6,7.7,1.1,13.9c0.8,8.5,0.9,10.1,1.5,10.4c-0.1,0.4-0.1,0.8-0.1,0.9  c0,0.3,0.1,0.4,0.1,0.7c-1.1,1.4-1.2,3.8-1.3,4.8h-6.3c0.1,0,0.2-0.1,0.2-0.2C97.9,184.4,98.4,181.7,97,179.9z M106.3,145  c0.4,0.1,0.8,0,1.1,0c0,0,0,0,0.1,0c0,0-0.1,0.1-0.1,0.1c-0.4,0-0.7,0.1-1,0.2c-0.1,0-0.2,0.1-0.3,0.1c-0.2,0.1-0.4,0.1-0.6,0.2  c0,0,0,0,0,0c0-0.2,0.1-0.4,0.1-0.6c0.1,0,0.3,0,0.4,0C106.1,145,106.2,145,106.3,145z M108.3,145.1c0.1,0,0.2,0,0.3,0  c0.2,0,0.3-0.1,0.5-0.1c0.1,0,0.1,0,0.2,0c0.1,0.2,0.1,0.4,0.1,0.6c0,0,0,0,0,0c-0.2-0.1-0.3-0.1-0.5-0.2c-0.1,0-0.2-0.1-0.3-0.1  c-0.2,0-0.3,0-0.5,0c-0.1,0-0.2,0-0.3,0c0,0,0,0,0,0c0.1,0,0.1,0,0.2,0C108,145.1,108.2,145.1,108.3,145.1z M106.5,177  c-0.4-4-1.7-17.7-2-22.7c-0.2-3.1-0.1-5.4,1-6.4c0.4-0.4,1.1-0.7,2-0.7c0.2,0,0.4,0,0.5,0c0.5,0.1,0.9,0.3,1.3,0.7  c1.4,1.5,1.4,5.2,1.4,6.5l0.2,22.6h-0.1H106.5z M110.3,130.1c-0.3,4-0.7,8.5-0.5,12.5c-0.2,0.1-0.4,0.2-0.5,0.3  c-0.3,0.1-0.6,0.2-0.9,0.3c-0.2,0-0.3,0-0.5,0c-0.2,0-0.3,0-0.5,0c-0.3,0-0.5,0-0.8-0.1c-0.1,0-0.1,0-0.2,0  c-0.3-0.1-0.7-0.1-1.1-0.2c-0.3-0.1-0.6-0.2-0.8-0.3c-0.1-2.2-0.4-9.3-0.9-13.1c-0.1-0.7-0.2-1.4-0.3-2.1c-0.5-3.2-1.1-7.3,0-9.2  c0.1-0.2,0.3-0.4,0.4-0.6c0.4-0.4,1.5-1.2,2.9-1.2c1,0,2.1,0.4,3.1,1.3c0.1,0.1,0.2,0.2,0.3,0.4  C111.1,119.9,110.7,124.9,110.3,130.1z M110,112h-0.6h-5.3h-6H93v-7.2c0-5.5,2.8-7.8,3.5-8.8h10.7c0.8,1,2.7,3.3,2.7,8.8V112z   M107,94H97v-2h10V94z M107.5,90H96.4C94,85,93.2,78.9,93,74.5c0-0.1,0-0.1,0-0.2c0-0.3,0-0.6-0.1-0.9c-0.1-1.1-0.1-2-0.1-2.8  c0-0.2,0-0.4,0-0.6c1.7-0.1,5.3-0.4,9.2-0.4c3.9,0,7.5,0.3,9.2,0.4c0,0.2,0,0.4,0,0.6c0,0.5,0,1.1-0.1,1.9c-0.2,0.6-0.4,1.2-0.4,1.9  c0,0.5,0.1,0.7,0.2,1.1C110.5,79.8,109.7,86,107.5,90z M86.4,77.3c-1.1-0.5-1.8-1.7-1.8-2.9c0-1.1,0.6-2.1,1.5-2.7  c0.5-0.3,1.1-0.5,1.7-0.5c1.5,0,2.8,1.1,3.1,2.5c0,0.3,0,0.7,0.1,1c-0.2,1.6-1.5,2.9-3.2,2.9C87.3,77.7,86.8,77.6,86.4,77.3z   M83.4,77.2c-3.2,0-7.6,0-11.2,0c-4.6,0-5.9,0-6.2,0c-0.2,0-0.7-0.2-1-0.5c-0.4-0.4-0.4-1-0.2-1.7c0.2-0.4,0.4-1,0.8-1.4  c1.5-1.4,4.3-1.6,4.6-1.6h0.2l12.9-0.2c-0.1,0.1-0.1,0.3-0.2,0.4c0,0.1-0.1,0.2-0.1,0.3c0,0.1-0.1,0.3-0.1,0.4  c0,0.1-0.1,0.2-0.1,0.2c0,0.1-0.1,0.3-0.1,0.4c0,0.1,0,0.1,0,0.2c0,0.2,0,0.4,0,0.7c0,0.3,0,0.5,0.1,0.8c0,0.1,0,0.2,0.1,0.2  c0,0.2,0.1,0.3,0.1,0.5c0,0.1,0.1,0.2,0.1,0.3c0,0.1,0.1,0.3,0.1,0.4c0,0.1,0.1,0.2,0.2,0.3C83.2,77,83.3,77.1,83.4,77.2  C83.4,77.2,83.4,77.2,83.4,77.2z M62.9,74.3c-0.1,0.2-0.1,0.4-0.2,0.6c0,0.1,0,0.1,0,0.2c0,0.1,0,0.3-0.1,0.4c0,0.1,0.2,0.1,0.2,0.2  c0,0.2,0.2,0.3,0.2,0.5c0,0,0,0,0,0c0,0-0.3-0.1-0.3-0.1c0,0-0.2-0.1-0.2-0.1c0-0.1-0.1-0.1-0.2-0.2c0,0-0.1-0.1-0.1-0.1  c0-0.1-0.1-0.1-0.1-0.2c0,0,0-0.1,0-0.1c0-0.1,0-0.2,0-0.3c0-0.1,0-0.2,0-0.3c0.1-0.2,0.2-0.4,0.3-0.6c0.1-0.1,0.2-0.2,0.3-0.2  c0.2-0.1,0.3-0.2,0.5-0.2c0,0,0,0,0,0C63,73.9,62.9,74.1,62.9,74.3z M60.6,76.9c-0.7,0.3-1.4,0.3-1.6,0.3c0,0,0,0,0,0l0,0l-13.6-1.4  c-0.3,0-1.1-0.2-1.5-0.7c-0.2-0.3-0.3-0.6-0.3-1.1c0-0.4,0.1-0.5,0.3-0.7c0.4-0.4,1-0.4,1.4-0.4c0,0,0,0,0,0H59c0.3,0,1,0,1.6,0.3  c0,0.1-0.1,0.1-0.1,0.2c0,0,0,0.1-0.1,0.1c-0.1,0.2-0.2,0.4-0.2,0.6c0,0,0,0.1,0,0.1C60.1,74.5,60,74.8,60,75c0,0.3,0,0.5,0.1,0.7  c0,0,0,0.1,0,0.1c0.1,0.2,0.1,0.5,0.3,0.7c0,0,0,0.1,0.1,0.1C60.5,76.8,60.6,76.8,60.6,76.9z M101.9,44.7c2.4,0,4,0.7,5,2.2  c2.8,4.3-0.3,13.5-1.4,16.4c0,0-0.1,0-0.1,0c-0.1,0-0.2-0.1-0.4-0.1c-0.1,0-0.2,0-0.3-0.1c-0.1,0-0.3-0.1-0.5-0.1  c-0.1,0-0.2,0-0.3-0.1c-0.2,0-0.4-0.1-0.6-0.1c-0.1,0-0.2,0-0.3,0c-0.3,0-0.7,0-1.1,0c-0.4,0-0.7,0-1,0c-0.1,0-0.2,0-0.3,0  c-0.2,0-0.4,0-0.6,0.1c-0.1,0-0.2,0-0.3,0.1c-0.2,0-0.3,0.1-0.4,0.1c-0.1,0-0.2,0-0.3,0.1c-0.1,0-0.2,0.1-0.4,0.1c0,0,0,0-0.1,0  c-1.1-2.9-4.4-12.1-1.5-16.4C97.9,45.4,99.5,44.7,101.9,44.7z M99,65c0,0-0.1,0-0.1,0c0.1,0,0.3,0,0.4,0c0,0,0.1,0,0.2,0  c0.1,0,0.3,0,0.4-0.1c0.1,0,0.2,0,0.2,0c0.2,0,0.3,0,0.5-0.1c0.1,0,0.2,0,0.3,0c0.3,0,0.6,0,0.9,0c0.3,0,0.7,0,1,0  c0.1,0,0.2,0,0.3,0c0.2,0,0.4,0,0.6,0.1c0.1,0,0.2,0,0.2,0c0.2,0,0.3,0.1,0.5,0.1c0.1,0,0.1,0,0.2,0c0.2,0,0.3,0.1,0.5,0.1  c0,0,0,0,0,0V68h-6V65z M113,73c0.5-1,1.5-1.8,2.7-1.8c0.6,0,1.1,0.2,1.6,0.5c0.9,0.6,1.4,1.6,1.4,2.7c0,0.3,0,0.4-0.1,0.7  c-0.2,0.9-0.8,1.8-1.6,1.8c0,0,0,0,0,0c-0.4,1-0.8,0.5-1.3,0.5c-1.3,0-2.4-0.8-2.8-2C113,74.5,113,73.8,113,73z M120,77.2  c0.1-0.1,0.1-0.2,0.2-0.4c0-0.1,0.1-0.2,0.1-0.3c0.1-0.1,0.1-0.3,0.1-0.4c0-0.1,0.1-0.2,0.1-0.3c0-0.2,0.1-0.3,0.1-0.5  c0-0.1,0-0.2,0-0.2c0-0.2,0.1-0.5,0.1-0.7c0-0.2,0-0.4,0-0.7c0-0.1,0-0.1,0-0.2c0-0.1,0-0.3-0.1-0.4c0-0.1,0-0.1-0.1-0.2  c0-0.1-0.1-0.3-0.1-0.4c0-0.1-0.1-0.1-0.1-0.2c-0.1-0.1-0.1-0.5-0.2-0.6l12.2,0.2c0,0,0.1,0,0.1,0c0.3,0,2.9,0.2,4.4,1.6  c0.4,0.3,0.6,0.8,0.7,1.3c0.2,0.8,0.2,1.4-0.2,1.8c-0.3,0.4-0.7,0.5-0.9,0.5c-0.2,0-1.2,0-5.8,0C127.2,77.3,123,77.3,120,77.2  C119.9,77.2,119.9,77.2,120,77.2z M95.3,46C91.5,51.7,96,63.1,97,64.8v3c-3,0.2-5.3,0.4-5.3,0.4c-0.3,0-0.5,0.2-0.7,0.4  s-0.2,0.5-0.2,0.8c0,0.1,0,0.4,0,0.8c-0.9-0.6-1.9-1-3-1c-0.9,0-1.7,0.2-2.5,0.7l-14.9,0.5l-0.1,0c-0.8,0-3.5,0.1-5.4,1.5  c-0.8-0.3-1.7-0.2-2.5,0.1c-1.3-1-2.9-1-3.2-1H45.4c-0.3,0-1.3,0-2.1,0.5c-0.7-0.3-1.5-0.4-2.3-0.2c-1.1-1.3-3-2.2-5.1-2.6  c-0.6-0.1-1-0.2-1.6-0.2c-1.8,0-3.3,0.5-4.3,1.3V51.2c1-2.3,2.9-4.2,4.7-6.2h61.5C95.8,45,95.5,45.6,95.3,46z M39.8,73  c0.2,0.4,0.3,0.7,0.2,1c0,0.3-0.2,0.5-0.4,0.7c-0.9,0.9-2.9,1.4-5,1c-1.4-0.2-2.7-0.8-3.5-1.5c-0.7-0.6-1.1-1.3-1-1.9  c0.2-1.1,1.9-1.9,4-1.9c0.5,0,1,0,1.4,0.1C37.5,70.9,39.2,71.9,39.8,73z M30,75.6c0,0.1-0.1,0.1,0,0.2c1.1,1,2.7,1.7,4.4,2  c0.6,0.1,1.1,0.2,1.7,0.2c0,0,0,0,0,0c1.7,0,3.2-0.5,4.3-1.2c0.5,0.3,1,0.4,1.5,0.4c0.3,0,0.7-0.1,1-0.2c1,0.8,2.2,0.9,2.3,0.9  l13.6,1.4l0.2,0v0c1,0,2-0.1,3.2-1c0.4,0.1,0.8,0.2,1.2,0.2c0.1,0,0.3,0,0.4,0c0.7,0.5,1.4,0.8,1.9,0.8c0.2,0,0.6,0,6.3,0  c4.6,0,10.7,0,13.6,0c0.7,0.3,1.3,0.4,2,0.4c1.4,0,2.6-0.5,3.5-1.4c0.5,4.2,1.4,9.2,3.5,13.6c0.1,0.1,0.2,0.2,0.2,0.3v2.7  c-1,1-4,4-4,9.9v7.9c-1,1-1.2,2.3-1.2,3.6c0,0.4,0.1,0.8,0.2,1.2c-1.1,2.5-0.7,7-0.2,12.7c0.3,4.1,0.7,8.7,0.5,12.8  c0,0.3,0.1,0.6,0.4,0.8c0.1,0.1,0.3,0.2,0.4,0.3c-0.2,0.5-0.3,1-0.3,1.6c0,0.5,0.1,0.9,0.2,1.3c-1.8,2.5-1.5,6.7-1.5,7.2l-0.2,23.4  c0,0.3,0.1,0.5,0.3,0.7c0.1,0.1,0.3,0.2,0.5,0.3c0,0.1,0,0.2,0,0.3c0,0.3,0.1,0.7,0.1,1c-1.7,1.8-2.1,4.7-2.1,4.8  c0,0.1,0.2,0.1,0.2,0.2C64.2,181.5,43,168,30,148.8V75.6z M106.5,185H106c0,0,0,0.2,0,0.2c0-1.4,0.3-3.2,1.1-3.9  c0.3-0.3,0.8-0.3,1.3-0.3h0.1c0.6,0,1.1,0.1,1.6,0.5c0.1,0.1,0.2,0.1,0.3,0.1c0,0,0.1,0,0.1,0c0,0,0.1,0,0.1,0c0.1,0,5.7,0.7,8,1.7  c0.2,0.1,0.3-0.1,0.5,0C115,184.3,110.8,185,106.5,185z M119.4,181.5c-1.9-0.7-5.5-1.3-7.4-1.6c0-0.1,0-0.3,0-0.4  c0-0.1,0-0.5-0.1-0.9c0.2,0,0.4-0.1,0.5-0.3c0.2-0.2,0.3-0.4,0.3-0.7l-0.2-23.4c0-0.5,0.3-4.7-1.5-7.2c0.2-0.4,0.2-0.9,0.2-1.3  c0-0.5-0.1-1.1-0.3-1.6c0.1-0.1,0.3-0.2,0.4-0.3c0.3-0.2,0.4-0.5,0.4-0.8c-0.2-4,0.1-8.7,0.5-12.8c0.5-5.7,0.8-10.2-0.3-12.7  c0.1-0.4,0.2-0.8,0.2-1.2c0-0.9-0.5-1.8-0.9-2.6c0.5-0.1,0.7-0.5,0.7-1v-7.9c0-6.1-2-9.1-3-10v-2.5c0-0.1,0.1-0.2,0.2-0.4  c2.1-4.2,3-9.2,3.5-13.3c0.9,0.7,1.9,1.1,3,1.1c0.7,0,1.3-0.1,1.9-0.4c2.8,0,8.5,0,12.9,0c5.4,0,5.8,0,6,0c0.5,0,1.2-0.3,1.9-0.8  c0.1,0,0.2,0,0.4,0c0.4,0,0.8-0.1,1.1-0.2c1.1,0.9,2.6,1,3.1,1l13-1.4c0.2,0,1.3-0.1,2.3-0.9c0.3,0.1,0.6,0.2,0.9,0.2  c0.5,0,1-0.2,1.4-0.4c1,0.8,2.5,1.2,4.1,1.2c0.6,0,0.9,0,1.5-0.1c1.6-0.3,2.7-0.9,3.7-1.7v72.7c-11,16.6-28.7,29-48.8,34.2  C120.7,182.4,120.3,181.9,119.4,181.5z M170,45V47c0-0.8-0.7-1.9-1.3-1.9H170z M100.1,14.2c25,0,47.5,10.8,63.1,27.8H36.9  C52.6,25,75.1,14.2,100.1,14.2z M30,45h1.5C30.9,45,30,46.2,30,47V45z M14.2,100c0-16.5,4.8-31.9,12.8-45v90  C19,131.9,14.2,116.5,14.2,100z M30,185v-31.9C42,168.8,58.5,180,78.1,185H30z M122.3,185c0,0-0.2,0.2-0.2,0.2  c19.5-5.1,37-16.4,48-32.1V185H122.3z"/></svg>